<svg width="1920" height="1007" viewBox="0 0 1920 1007" fill="none" xmlns="http://www.w3.org/2000/svg">
<path d="M1920 -5.37075e-05V1006.17L1471.5 735.667L0 839V-0.00012207L1920 -5.37075e-05Z" fill="#C4C4C4"/>
<path d="M1920 -5.37075e-05V1006.17L1471.5 735.667L0 839V-0.00012207L1920 -5.37075e-05Z" fill="url(#paint0_linear)"/>
<path d="M1920 0V1005.5L1544.5 539C935.868 652.838 608.632 725.162 0 839V0H1920Z" fill="url(#paint1_linear)"/>
<line opacity="0.05" x1="389.5" y1="504" x2="389.5" y2="810" stroke="white"/>
<g opacity="0.8">
<g opacity="0.1">
<path d="M1602.15 103.567L1600.61 102L1589.32 113.491L1590.86 115.058L1602.15 103.567Z" fill="#EDEDED"/>
<path d="M1590.54 102.09L1589 103.657L1600.29 115.148L1601.83 113.581L1590.54 102.09Z" fill="#EDEDED"/>
<path d="M1632.85 103.567L1631.31 102L1620.01 113.491L1621.55 115.058L1632.85 103.567Z" fill="#EDEDED"/>
<path d="M1621.23 102.09L1619.69 103.657L1630.98 115.148L1632.52 113.581L1621.23 102.09Z" fill="#EDEDED"/>
<path d="M1663.54 103.567L1662 102L1650.71 113.491L1652.25 115.058L1663.54 103.567Z" fill="#EDEDED"/>
<path d="M1651.92 102.09L1650.38 103.657L1661.68 115.148L1663.22 113.581L1651.92 102.09Z" fill="#EDEDED"/>
<path d="M1694.23 103.567L1692.69 102L1681.4 113.491L1682.94 115.058L1694.23 103.567Z" fill="#EDEDED"/>
<path d="M1682.62 102.09L1681.08 103.657L1692.37 115.148L1693.91 113.581L1682.62 102.09Z" fill="#EDEDED"/>
<path d="M1724.92 103.567L1723.38 102L1712.09 113.491L1713.63 115.058L1724.92 103.567Z" fill="#EDEDED"/>
<path d="M1713.31 102.09L1711.77 103.657L1723.06 115.148L1724.6 113.581L1713.31 102.09Z" fill="#EDEDED"/>
<path d="M1632.85 135.706L1631.31 134.139L1620.01 145.63L1621.55 147.197L1632.85 135.706Z" fill="#EDEDED"/>
<path d="M1621.23 134.229L1619.69 135.796L1630.98 147.287L1632.52 145.72L1621.23 134.229Z" fill="#EDEDED"/>
<path d="M1663.54 135.706L1662 134.139L1650.71 145.63L1652.25 147.197L1663.54 135.706Z" fill="#EDEDED"/>
<path d="M1651.92 134.229L1650.38 135.796L1661.68 147.287L1663.22 145.72L1651.92 134.229Z" fill="#EDEDED"/>
<path d="M1694.23 135.706L1692.69 134.139L1681.4 145.63L1682.94 147.197L1694.23 135.706Z" fill="#EDEDED"/>
<path d="M1682.62 134.229L1681.08 135.796L1692.37 147.287L1693.91 145.72L1682.62 134.229Z" fill="#EDEDED"/>
<path d="M1724.92 135.706L1723.38 134.139L1712.09 145.63L1713.63 147.197L1724.92 135.706Z" fill="#EDEDED"/>
<path d="M1713.31 134.229L1711.77 135.796L1723.06 147.287L1724.6 145.72L1713.31 134.229Z" fill="#EDEDED"/>
<path d="M1632.85 164.923L1631.31 163.357L1620.01 174.848L1621.55 176.415L1632.85 164.923Z" fill="#EDEDED"/>
<path d="M1621.23 163.446L1619.69 165.013L1630.98 176.504L1632.52 174.937L1621.23 163.446Z" fill="#EDEDED"/>
<path d="M1663.54 164.923L1662 163.357L1650.71 174.848L1652.25 176.415L1663.54 164.923Z" fill="#EDEDED"/>
<path d="M1651.92 163.446L1650.38 165.013L1661.68 176.504L1663.22 174.937L1651.92 163.446Z" fill="#EDEDED"/>
<path d="M1694.23 164.923L1692.69 163.357L1681.4 174.848L1682.94 176.415L1694.23 164.923Z" fill="#EDEDED"/>
<path d="M1682.62 163.446L1681.08 165.013L1692.37 176.504L1693.91 174.937L1682.62 163.446Z" fill="#EDEDED"/>
<path d="M1724.92 164.923L1723.38 163.357L1712.09 174.848L1713.63 176.415L1724.92 164.923Z" fill="#EDEDED"/>
<path d="M1713.31 163.446L1711.77 165.013L1723.06 176.504L1724.6 174.937L1713.31 163.446Z" fill="#EDEDED"/>
<path d="M1755.62 164.923L1754.08 163.357L1742.78 174.848L1744.32 176.415L1755.62 164.923Z" fill="#EDEDED"/>
<path d="M1744 163.446L1742.46 165.013L1753.75 176.504L1755.29 174.937L1744 163.446Z" fill="#EDEDED"/>
<path d="M1786.31 164.923L1784.77 163.357L1773.48 174.848L1775.02 176.415L1786.31 164.923Z" fill="#EDEDED"/>
<path d="M1774.69 163.446L1773.15 165.013L1784.45 176.504L1785.99 174.937L1774.69 163.446Z" fill="#EDEDED"/>
<path d="M1817 164.923L1815.46 163.357L1804.17 174.848L1805.71 176.415L1817 164.923Z" fill="#EDEDED"/>
<path d="M1805.39 163.446L1803.85 165.013L1815.14 176.504L1816.68 174.937L1805.39 163.446Z" fill="#EDEDED"/>
<path d="M1724.92 197.063L1723.38 195.496L1712.09 206.987L1713.63 208.554L1724.92 197.063Z" fill="#EDEDED"/>
<path d="M1713.31 195.585L1711.77 197.152L1723.06 208.643L1724.6 207.076L1713.31 195.585Z" fill="#EDEDED"/>
<path d="M1602.15 197.063L1600.61 195.496L1589.32 206.987L1590.86 208.554L1602.15 197.063Z" fill="#EDEDED"/>
<path d="M1590.54 195.585L1589 197.152L1600.29 208.643L1601.83 207.076L1590.54 195.585Z" fill="#EDEDED"/>
<path d="M1632.85 197.063L1631.31 195.496L1620.01 206.987L1621.55 208.554L1632.85 197.063Z" fill="#EDEDED"/>
<path d="M1621.23 195.585L1619.69 197.152L1630.98 208.643L1632.52 207.076L1621.23 195.585Z" fill="#EDEDED"/>
<path d="M1663.54 197.063L1662 195.496L1650.71 206.987L1652.25 208.554L1663.54 197.063Z" fill="#EDEDED"/>
<path d="M1651.92 195.585L1650.38 197.152L1661.68 208.643L1663.22 207.076L1651.92 195.585Z" fill="#EDEDED"/>
<path d="M1694.23 197.063L1692.69 195.496L1681.4 206.987L1682.94 208.554L1694.23 197.063Z" fill="#EDEDED"/>
<path d="M1682.62 195.585L1681.08 197.152L1692.37 208.643L1693.91 207.076L1682.62 195.585Z" fill="#EDEDED"/>
<path d="M1694.23 229.202L1692.69 227.635L1681.4 239.126L1682.94 240.693L1694.23 229.202Z" fill="#EDEDED"/>
<path d="M1682.62 227.724L1681.08 229.291L1692.37 240.783L1693.91 239.216L1682.62 227.724Z" fill="#EDEDED"/>
<path d="M1724.92 229.202L1723.38 227.635L1712.09 239.126L1713.63 240.693L1724.92 229.202Z" fill="#EDEDED"/>
<path d="M1713.31 227.724L1711.77 229.291L1723.06 240.783L1724.6 239.216L1713.31 227.724Z" fill="#EDEDED"/>
<path d="M1755.62 197.063L1754.08 195.496L1742.78 206.987L1744.32 208.554L1755.62 197.063Z" fill="#EDEDED"/>
<path d="M1744 195.585L1742.46 197.152L1753.75 208.643L1755.29 207.076L1744 195.585Z" fill="#EDEDED"/>
<path d="M1755.62 229.202L1754.08 227.635L1742.78 239.126L1744.32 240.693L1755.62 229.202Z" fill="#EDEDED"/>
<path d="M1744 227.724L1742.46 229.291L1753.75 240.783L1755.29 239.216L1744 227.724Z" fill="#EDEDED"/>
<path d="M1786.31 197.063L1784.77 195.496L1773.48 206.987L1775.02 208.554L1786.31 197.063Z" fill="#EDEDED"/>
<path d="M1774.69 195.585L1773.15 197.152L1784.45 208.643L1785.99 207.076L1774.69 195.585Z" fill="#EDEDED"/>
<path d="M1786.31 229.202L1784.77 227.635L1773.48 239.126L1775.02 240.693L1786.31 229.202Z" fill="#EDEDED"/>
<path d="M1774.69 227.724L1773.15 229.291L1784.45 240.783L1785.99 239.216L1774.69 227.724Z" fill="#EDEDED"/>
<path d="M1724.92 258.419L1723.38 256.852L1712.09 268.343L1713.63 269.91L1724.92 258.419Z" fill="#EDEDED"/>
<path d="M1713.31 256.942L1711.77 258.509L1723.06 270L1724.6 268.433L1713.31 256.942Z" fill="#EDEDED"/>
<path d="M1755.62 258.419L1754.08 256.852L1742.78 268.343L1744.32 269.91L1755.62 258.419Z" fill="#EDEDED"/>
<path d="M1744 256.942L1742.46 258.509L1753.75 270L1755.29 268.433L1744 256.942Z" fill="#EDEDED"/>
<path d="M1786.31 258.419L1784.77 256.852L1773.48 268.343L1775.02 269.91L1786.31 258.419Z" fill="#EDEDED"/>
<path d="M1774.69 256.942L1773.15 258.509L1784.45 270L1785.99 268.433L1774.69 256.942Z" fill="#EDEDED"/>
<path d="M1817 258.419L1815.46 256.852L1804.17 268.343L1805.71 269.91L1817 258.419Z" fill="#EDEDED"/>
<path d="M1805.39 256.942L1803.85 258.509L1815.14 270L1816.68 268.433L1805.39 256.942Z" fill="#EDEDED"/>
</g>
<path opacity="0.1" d="M221.546 587.1V592H220.853V587.709H219.747V587.1H221.546Z" fill="white"/>
<path opacity="0.1" d="M269.206 591.391V592H265.685V591.524L267.68 589.599C267.923 589.366 268.086 589.165 268.17 588.997C268.254 588.824 268.296 588.652 268.296 588.479C268.296 588.222 268.205 588.024 268.023 587.884C267.846 587.739 267.589 587.667 267.253 587.667C266.712 587.667 266.294 587.844 266 588.199L265.524 587.786C265.716 587.553 265.965 587.371 266.273 587.24C266.586 587.109 266.934 587.044 267.316 587.044C267.83 587.044 268.238 587.168 268.541 587.415C268.845 587.658 268.996 587.989 268.996 588.409C268.996 588.67 268.94 588.918 268.828 589.151C268.716 589.384 268.504 589.65 268.191 589.949L266.693 591.391H269.206Z" fill="white"/>
<path opacity="0.1" d="M315.719 589.158C316.2 589.205 316.566 589.354 316.818 589.606C317.07 589.853 317.196 590.171 317.196 590.558C317.196 590.838 317.126 591.092 316.986 591.321C316.846 591.545 316.636 591.725 316.356 591.86C316.081 591.991 315.743 592.056 315.341 592.056C314.991 592.056 314.655 592.005 314.333 591.902C314.011 591.795 313.748 591.648 313.542 591.461L313.864 590.908C314.032 591.067 314.247 591.195 314.508 591.293C314.77 591.386 315.047 591.433 315.341 591.433C315.705 591.433 315.988 591.356 316.188 591.202C316.394 591.048 316.496 590.836 316.496 590.565C316.496 590.294 316.396 590.084 316.195 589.935C315.995 589.786 315.691 589.711 315.285 589.711H314.893V589.221L316.125 587.709H313.766V587.1H317V587.576L315.719 589.158Z" fill="white"/>
<path opacity="0.1" d="M365.015 590.796H364.084V592H363.405V590.796H360.682V590.306L363.188 587.1H363.944L361.543 590.194H363.426V589.13H364.084V590.194H365.015V590.796Z" fill="white"/>
<path opacity="0.1" d="M410.233 589.053C410.933 589.053 411.446 589.186 411.773 589.452C412.104 589.713 412.27 590.073 412.27 590.53C412.27 590.819 412.2 591.081 412.06 591.314C411.924 591.543 411.717 591.725 411.437 591.86C411.161 591.991 410.821 592.056 410.415 592.056C410.069 592.056 409.736 592.005 409.414 591.902C409.092 591.795 408.826 591.648 408.616 591.461L408.938 590.908C409.106 591.067 409.32 591.195 409.582 591.293C409.843 591.386 410.118 591.433 410.408 591.433C410.776 591.433 411.061 591.356 411.262 591.202C411.467 591.043 411.57 590.829 411.57 590.558C411.57 590.264 411.458 590.042 411.234 589.893C411.01 589.739 410.627 589.662 410.086 589.662H408.973L409.232 587.1H411.997V587.709H409.82L409.687 589.053H410.233Z" fill="white"/>
<path opacity="0.1" d="M459.028 589.025C459.35 589.025 459.637 589.086 459.889 589.207C460.146 589.328 460.346 589.503 460.491 589.732C460.636 589.956 460.708 590.215 460.708 590.509C460.708 590.817 460.631 591.088 460.477 591.321C460.328 591.554 460.12 591.736 459.854 591.867C459.593 591.993 459.299 592.056 458.972 592.056C458.314 592.056 457.805 591.844 457.446 591.419C457.091 590.994 456.914 590.392 456.914 589.613C456.914 589.067 457.01 588.603 457.201 588.22C457.397 587.833 457.668 587.541 458.013 587.345C458.363 587.144 458.769 587.044 459.231 587.044C459.469 587.044 459.693 587.07 459.903 587.121C460.113 587.168 460.295 587.238 460.449 587.331L460.183 587.877C459.95 587.723 459.637 587.646 459.245 587.646C458.736 587.646 458.337 587.805 458.048 588.122C457.759 588.435 457.614 588.892 457.614 589.494C457.614 589.569 457.616 589.627 457.621 589.669C457.761 589.459 457.952 589.3 458.195 589.193C458.442 589.081 458.72 589.025 459.028 589.025ZM458.944 591.489C459.266 591.489 459.527 591.403 459.728 591.23C459.929 591.057 460.029 590.826 460.029 590.537C460.029 590.248 459.926 590.019 459.721 589.851C459.52 589.678 459.25 589.592 458.909 589.592C458.69 589.592 458.494 589.634 458.321 589.718C458.153 589.802 458.02 589.916 457.922 590.061C457.829 590.206 457.782 590.367 457.782 590.544C457.782 590.717 457.826 590.875 457.915 591.02C458.008 591.16 458.141 591.274 458.314 591.363C458.491 591.447 458.701 591.489 458.944 591.489Z" fill="white"/>
<path opacity="0.1" d="M508.565 587.1V587.576L506.584 592H505.842L507.781 587.709H505.541V588.584H504.869V587.1H508.565Z" fill="white"/>
<rect opacity="0.1" x="219.691" y="602.59" width="257.996" height="1.17266" fill="white"/>
<path opacity="0.1" d="M221.679 630.471C222.192 630.471 222.584 630.597 222.855 630.849C223.13 631.101 223.268 631.476 223.268 631.976V634.216H222.631V633.726C222.519 633.898 222.358 634.031 222.148 634.125C221.942 634.213 221.697 634.258 221.413 634.258C220.997 634.258 220.664 634.157 220.412 633.957C220.164 633.756 220.041 633.492 220.041 633.166C220.041 632.839 220.16 632.578 220.398 632.382C220.636 632.181 221.014 632.081 221.532 632.081H222.596V631.948C222.596 631.658 222.512 631.437 222.344 631.283C222.176 631.129 221.928 631.052 221.602 631.052C221.382 631.052 221.168 631.089 220.958 631.164C220.748 631.234 220.57 631.329 220.426 631.451L220.146 630.947C220.337 630.793 220.566 630.676 220.832 630.597C221.098 630.513 221.38 630.471 221.679 630.471ZM221.525 633.74C221.781 633.74 222.003 633.684 222.19 633.572C222.376 633.455 222.512 633.292 222.596 633.082V632.564H221.56C220.99 632.564 220.706 632.755 220.706 633.138C220.706 633.324 220.778 633.471 220.923 633.579C221.067 633.686 221.268 633.74 221.525 633.74Z" fill="white"/>
<path opacity="0.1" d="M270.025 633.012H269.094V634.216H268.415V633.012H265.692V632.522L268.198 629.316H268.954L266.553 632.41H268.436V631.346H269.094V632.41H270.025V633.012Z" fill="white"/>
<path opacity="0.1" d="M316.111 630.471C316.471 630.471 316.793 630.55 317.077 630.709C317.362 630.867 317.584 631.089 317.742 631.374C317.906 631.658 317.987 631.987 317.987 632.361C317.987 632.734 317.906 633.065 317.742 633.355C317.584 633.639 317.362 633.861 317.077 634.02C316.793 634.178 316.471 634.258 316.111 634.258C315.836 634.258 315.584 634.204 315.355 634.097C315.127 633.989 314.938 633.833 314.788 633.628V634.216H314.144V629.022H314.816V631.066C314.966 630.87 315.152 630.723 315.376 630.625C315.6 630.522 315.845 630.471 316.111 630.471ZM316.055 633.67C316.293 633.67 316.506 633.616 316.692 633.509C316.884 633.397 317.033 633.243 317.14 633.047C317.252 632.846 317.308 632.617 317.308 632.361C317.308 632.104 317.252 631.878 317.14 631.682C317.033 631.481 316.884 631.327 316.692 631.22C316.506 631.112 316.293 631.059 316.055 631.059C315.822 631.059 315.61 631.112 315.418 631.22C315.227 631.327 315.078 631.481 314.97 631.682C314.863 631.878 314.809 632.104 314.809 632.361C314.809 632.617 314.863 632.846 314.97 633.047C315.078 633.243 315.227 633.397 315.418 633.509C315.61 633.616 315.822 633.67 316.055 633.67Z" fill="white"/>
<path opacity="0.1" d="M362.271 629.316V634.216H361.578V629.925H360.472V629.316H362.271ZM365.261 634.258C364.883 634.258 364.544 634.176 364.246 634.013C363.952 633.849 363.721 633.625 363.553 633.341C363.385 633.051 363.301 632.725 363.301 632.361C363.301 631.997 363.385 631.672 363.553 631.388C363.721 631.098 363.952 630.874 364.246 630.716C364.544 630.552 364.883 630.471 365.261 630.471C365.597 630.471 365.895 630.538 366.157 630.674C366.423 630.809 366.628 631.005 366.773 631.262L366.262 631.591C366.145 631.413 366 631.28 365.828 631.192C365.655 631.103 365.464 631.059 365.254 631.059C365.011 631.059 364.792 631.112 364.596 631.22C364.404 631.327 364.253 631.481 364.141 631.682C364.033 631.878 363.98 632.104 363.98 632.361C363.98 632.622 364.033 632.853 364.141 633.054C364.253 633.25 364.404 633.401 364.596 633.509C364.792 633.616 365.011 633.67 365.254 633.67C365.464 633.67 365.655 633.625 365.828 633.537C366 633.448 366.145 633.315 366.262 633.138L366.773 633.46C366.628 633.716 366.423 633.915 366.157 634.055C365.895 634.19 365.597 634.258 365.261 634.258Z" fill="white"/>
<path opacity="0.1" d="M411.5 634.216L410.429 632.795L409.344 634.216H408.595L410.058 632.319L408.665 630.506H409.414L410.436 631.843L411.451 630.506H412.186L410.786 632.319L412.263 634.216H411.5ZM414.269 629.316V634.216H413.576V629.925H412.47V629.316H414.269Z" fill="white"/>
<path opacity="0.1" d="M460.358 633.607V634.216H456.837V633.74L458.832 631.815C459.075 631.581 459.238 631.381 459.322 631.213C459.406 631.04 459.448 630.867 459.448 630.695C459.448 630.438 459.357 630.24 459.175 630.1C458.998 629.955 458.741 629.883 458.405 629.883C457.864 629.883 457.446 630.06 457.152 630.415L456.676 630.002C456.867 629.768 457.117 629.586 457.425 629.456C457.738 629.325 458.085 629.26 458.468 629.26C458.981 629.26 459.39 629.383 459.693 629.631C459.996 629.873 460.148 630.205 460.148 630.625C460.148 630.886 460.092 631.133 459.98 631.367C459.868 631.6 459.656 631.866 459.343 632.165L457.845 633.607H460.358Z" fill="white"/>
<path opacity="0.1" d="M508.579 630.506L506.78 634.587C506.621 634.965 506.434 635.231 506.22 635.385C506.01 635.539 505.755 635.616 505.457 635.616C505.275 635.616 505.097 635.585 504.925 635.525C504.757 635.469 504.617 635.385 504.505 635.273L504.792 634.769C504.983 634.951 505.205 635.042 505.457 635.042C505.62 635.042 505.755 634.997 505.863 634.909C505.975 634.825 506.075 634.678 506.164 634.468L506.283 634.209L504.645 630.506H505.345L506.64 633.474L507.921 630.506H508.579ZM511.949 631.647C512.229 631.754 512.443 631.908 512.593 632.109C512.742 632.309 512.817 632.55 512.817 632.83C512.817 633.124 512.737 633.38 512.579 633.6C512.42 633.814 512.194 633.98 511.9 634.097C511.606 634.213 511.26 634.272 510.864 634.272C510.472 634.272 510.129 634.213 509.835 634.097C509.545 633.98 509.321 633.814 509.163 633.6C509.004 633.38 508.925 633.124 508.925 632.83C508.925 632.55 508.997 632.309 509.142 632.109C509.291 631.908 509.506 631.754 509.786 631.647C509.562 631.539 509.391 631.397 509.275 631.22C509.158 631.042 509.1 630.832 509.1 630.59C509.1 630.319 509.172 630.083 509.317 629.883C509.466 629.682 509.674 629.528 509.94 629.421C510.206 629.313 510.514 629.26 510.864 629.26C511.218 629.26 511.529 629.313 511.795 629.421C512.065 629.528 512.273 629.682 512.418 629.883C512.567 630.083 512.642 630.319 512.642 630.59C512.642 630.828 512.581 631.038 512.46 631.22C512.343 631.397 512.173 631.539 511.949 631.647ZM510.864 629.827C510.532 629.827 510.271 629.899 510.08 630.044C509.888 630.184 509.793 630.375 509.793 630.618C509.793 630.86 509.886 631.052 510.073 631.192C510.264 631.332 510.528 631.402 510.864 631.402C511.204 631.402 511.47 631.332 511.662 631.192C511.858 631.052 511.956 630.86 511.956 630.618C511.956 630.375 511.855 630.184 511.655 630.044C511.459 629.899 511.195 629.827 510.864 629.827ZM510.864 633.705C511.251 633.705 511.557 633.625 511.781 633.467C512.005 633.303 512.117 633.084 512.117 632.809C512.117 632.538 512.005 632.326 511.781 632.172C511.557 632.013 511.251 631.934 510.864 631.934C510.476 631.934 510.173 632.013 509.954 632.172C509.734 632.326 509.625 632.538 509.625 632.809C509.625 633.084 509.734 633.303 509.954 633.467C510.173 633.625 510.476 633.705 510.864 633.705Z" fill="white"/>
<rect opacity="0.1" x="219.691" y="644.806" width="134.861" height="1.17266" fill="white"/>
<path opacity="0.1" d="M434.276 750.053C435.425 750.053 436.095 749.106 436.095 747.469C436.095 745.835 435.415 744.882 434.276 744.882C433.131 744.882 432.451 745.832 432.451 747.462C432.451 749.103 433.125 750.053 434.276 750.053ZM434.276 749.383C433.606 749.383 433.224 748.71 433.224 747.462C433.224 746.228 433.613 745.552 434.276 745.552C434.939 745.552 435.322 746.225 435.322 747.462C435.322 748.713 434.946 749.383 434.276 749.383ZM439.172 750.053C440.321 750.053 440.991 749.106 440.991 747.469C440.991 745.835 440.31 744.882 439.172 744.882C438.027 744.882 437.347 745.832 437.347 747.462C437.347 749.103 438.02 750.053 439.172 750.053ZM439.172 749.383C438.502 749.383 438.12 748.71 438.12 747.462C438.12 746.228 438.509 745.552 439.172 745.552C439.835 745.552 440.218 746.225 440.218 747.462C440.218 748.713 439.842 749.383 439.172 749.383ZM442.284 746.427V746.437H443.009V746.427C443.009 745.9 443.374 745.545 443.918 745.545C444.427 745.545 444.813 745.883 444.813 746.334C444.813 746.697 444.653 746.956 443.993 747.643L442.325 749.38V749.933H445.647V749.246H443.391V749.188L444.489 748.077C445.316 747.24 445.569 746.813 445.569 746.29C445.569 745.476 444.878 744.882 443.942 744.882C442.971 744.882 442.284 745.517 442.284 746.427ZM434.276 758.053C435.425 758.053 436.095 757.106 436.095 755.469C436.095 753.835 435.415 752.882 434.276 752.882C433.131 752.882 432.451 753.832 432.451 755.462C432.451 757.103 433.125 758.053 434.276 758.053ZM434.276 757.383C433.606 757.383 433.224 756.71 433.224 755.462C433.224 754.228 433.613 753.552 434.276 753.552C434.939 753.552 435.322 754.225 435.322 755.462C435.322 756.713 434.946 757.383 434.276 757.383ZM439.172 758.053C440.321 758.053 440.991 757.106 440.991 755.469C440.991 753.835 440.31 752.882 439.172 752.882C438.027 752.882 437.347 753.832 437.347 755.462C437.347 757.103 438.02 758.053 439.172 758.053ZM439.172 757.383C438.502 757.383 438.12 756.71 438.12 755.462C438.12 754.228 438.509 753.552 439.172 753.552C439.835 753.552 440.218 754.225 440.218 755.462C440.218 756.713 439.842 757.383 439.172 757.383ZM443.381 755.719H444.003C444.649 755.719 445.049 756.036 445.049 756.546C445.049 757.031 444.625 757.376 444.024 757.376C443.426 757.376 443.015 757.072 442.968 756.594H442.233C442.277 757.475 442.988 758.053 444.024 758.053C445.053 758.053 445.832 757.424 445.832 756.587C445.832 755.927 445.422 755.466 444.748 755.387V755.329C445.292 755.206 445.63 754.768 445.63 754.187C445.63 753.446 444.926 752.882 444.01 752.882C443.022 752.882 442.38 753.432 442.328 754.324H443.056C443.097 753.839 443.45 753.541 443.986 753.541C444.523 753.541 444.875 753.842 444.875 754.3C444.875 754.765 444.509 755.086 443.979 755.086H443.381V755.719ZM434.276 766.053C435.425 766.053 436.095 765.106 436.095 763.469C436.095 761.835 435.415 760.882 434.276 760.882C433.131 760.882 432.451 761.832 432.451 763.462C432.451 765.103 433.125 766.053 434.276 766.053ZM434.276 765.383C433.606 765.383 433.224 764.71 433.224 763.462C433.224 762.228 433.613 761.552 434.276 761.552C434.939 761.552 435.322 762.225 435.322 763.462C435.322 764.713 434.946 765.383 434.276 765.383ZM439.172 766.053C440.321 766.053 440.991 765.106 440.991 763.469C440.991 761.835 440.31 760.882 439.172 760.882C438.027 760.882 437.347 761.832 437.347 763.462C437.347 765.103 438.02 766.053 439.172 766.053ZM439.172 765.383C438.502 765.383 438.12 764.71 438.12 763.462C438.12 762.228 438.509 761.552 439.172 761.552C439.835 761.552 440.218 762.225 440.218 763.462C440.218 764.713 439.842 765.383 439.172 765.383ZM444.595 765.933H445.333V764.98H446.013V764.296H445.333V761.001H444.242C443.364 762.317 442.629 763.462 442.188 764.269V764.98H444.595V765.933ZM442.923 764.265C443.504 763.257 444.072 762.382 444.56 761.675H444.605V764.313H442.923V764.265Z" fill="white"/>
<rect opacity="0.1" x="172" y="207" width="3.76195" height="3.75252" fill="white"/>
<rect opacity="0.1" x="185.167" y="207" width="3.76195" height="3.75252" fill="white"/>
<rect opacity="0.1" x="197.393" y="207" width="3.76195" height="3.75252" fill="white"/>
<rect opacity="0.1" x="210.56" y="207" width="3.76195" height="3.75252" fill="white"/>
<rect opacity="0.1" x="223.727" y="207" width="3.76195" height="3.75252" fill="white"/>
<rect opacity="0.1" x="236.894" y="207" width="3.76195" height="3.75252" fill="white"/>
<rect opacity="0.1" x="250.061" y="207" width="3.76195" height="3.75252" fill="white"/>
<rect opacity="0.1" x="263.227" y="207" width="3.76195" height="3.75252" fill="white"/>
<rect opacity="0.1" x="223.727" y="220.134" width="3.76195" height="3.75252" fill="white"/>
<rect opacity="0.1" x="236.894" y="220.134" width="3.76195" height="3.75252" fill="white"/>
<rect opacity="0.1" x="250.061" y="220.134" width="3.76195" height="3.75252" fill="white"/>
<rect opacity="0.1" x="263.227" y="220.134" width="3.76195" height="3.75252" fill="white"/>
<rect opacity="0.1" x="223.727" y="233.268" width="3.76195" height="3.75252" fill="white"/>
<rect opacity="0.1" x="236.894" y="233.268" width="3.76195" height="3.75252" fill="white"/>
<rect opacity="0.1" x="223.727" y="246.402" width="3.76195" height="3.75252" fill="white"/>
<rect opacity="0.1" x="236.894" y="246.402" width="3.76195" height="3.75252" fill="white"/>
<rect opacity="0.1" x="223.727" y="259.535" width="3.76195" height="3.75252" fill="white"/>
<rect opacity="0.1" x="236.894" y="259.535" width="3.76195" height="3.75252" fill="white"/>
<rect opacity="0.1" x="197.393" y="246.402" width="3.76195" height="3.75252" fill="white"/>
<rect opacity="0.1" x="210.56" y="246.402" width="3.76195" height="3.75252" fill="white"/>
<rect opacity="0.1" x="172" y="246.402" width="3.76195" height="3.75252" fill="white"/>
<rect opacity="0.1" x="185.167" y="246.402" width="3.76195" height="3.75252" fill="white"/>
<rect opacity="0.1" x="197.393" y="259.535" width="3.76195" height="3.75252" fill="white"/>
<rect opacity="0.1" x="210.56" y="259.535" width="3.76195" height="3.75252" fill="white"/>
<rect opacity="0.1" x="250.061" y="233.268" width="3.76195" height="3.75252" fill="white"/>
<rect opacity="0.1" x="263.227" y="233.268" width="3.76195" height="3.75252" fill="white"/>
<g opacity="0.1">
<path d="M1471.14 516H1465V522.124H1471.14V516Z" fill="white"/>
<path d="M1471.14 537.487H1465V543.611H1471.14V537.487Z" fill="white"/>
<path d="M1471.14 557.44H1465V563.564H1471.14V557.44Z" fill="white"/>
<path d="M1471.14 578.927H1465V585.051H1471.14V578.927Z" fill="white"/>
<path d="M1471.14 600.414H1465V606.538H1471.14V600.414Z" fill="white"/>
<path d="M1471.14 621.902H1465V628.026H1471.14V621.902Z" fill="white"/>
<path d="M1471.14 643.389H1465V649.513H1471.14V643.389Z" fill="white"/>
<path d="M1471.14 664.876H1465V671H1471.14V664.876Z" fill="white"/>
<path d="M1492.59 600.414H1486.45V606.538H1492.59V600.414Z" fill="white"/>
<path d="M1492.59 621.902H1486.45V628.026H1492.59V621.902Z" fill="white"/>
<path d="M1492.59 643.389H1486.45V649.513H1492.59V643.389Z" fill="white"/>
<path d="M1492.59 664.876H1486.45V671H1492.59V664.876Z" fill="white"/>
<path d="M1514.04 600.414H1507.89V606.538H1514.04V600.414Z" fill="white"/>
<path d="M1514.04 621.902H1507.89V628.026H1514.04V621.902Z" fill="white"/>
<path d="M1535.48 600.414H1529.34V606.538H1535.48V600.414Z" fill="white"/>
<path d="M1535.48 621.902H1529.34V628.026H1535.48V621.902Z" fill="white"/>
<path d="M1556.93 600.414H1550.79V606.538H1556.93V600.414Z" fill="white"/>
<path d="M1556.93 621.902H1550.79V628.026H1556.93V621.902Z" fill="white"/>
<path d="M1535.48 557.44H1529.34V563.564H1535.48V557.44Z" fill="white"/>
<path d="M1535.48 578.927H1529.34V585.051H1535.48V578.927Z" fill="white"/>
<path d="M1535.48 516H1529.34V522.124H1535.48V516Z" fill="white"/>
<path d="M1535.48 537.487H1529.34V543.611H1535.48V537.487Z" fill="white"/>
<path d="M1556.93 557.44H1550.79V563.564H1556.93V557.44Z" fill="white"/>
<path d="M1556.93 578.927H1550.79V585.051H1556.93V578.927Z" fill="white"/>
<path d="M1514.04 643.389H1507.89V649.513H1514.04V643.389Z" fill="white"/>
<path d="M1514.04 664.876H1507.89V671H1514.04V664.876Z" fill="white"/>
</g>
<g opacity="0.1">
<path d="M1616.86 648.999H1623V655.124H1616.86V648.999Z" fill="white"/>
<path d="M1616.86 670.487H1623V676.611H1616.86V670.487Z" fill="white"/>
<path d="M1616.86 690.439H1623V696.563H1616.86V690.439Z" fill="white"/>
<path d="M1616.86 711.926H1623V718.05H1616.86V711.926Z" fill="white"/>
<path d="M1616.86 733.414H1623V739.538H1616.86V733.414Z" fill="white"/>
<path d="M1616.86 754.901H1623V761.025H1616.86V754.901Z" fill="white"/>
<path d="M1616.86 776.389H1623V782.513H1616.86V776.389Z" fill="white"/>
<path d="M1616.86 797.876H1623V804H1616.86V797.876Z" fill="white"/>
<path d="M1595.41 733.414H1601.55V739.538H1595.41V733.414Z" fill="white"/>
<path d="M1595.41 754.901H1601.55V761.025H1595.41V754.901Z" fill="white"/>
<path d="M1595.41 776.389H1601.55V782.513H1595.41V776.389Z" fill="white"/>
<path d="M1595.41 797.876H1601.55V804H1595.41V797.876Z" fill="white"/>
<path d="M1573.96 733.414H1580.11V739.538H1573.96V733.414Z" fill="white"/>
<path d="M1573.96 754.901H1580.11V761.025H1573.96V754.901Z" fill="white"/>
<path d="M1552.52 733.414H1558.66V739.538H1552.52V733.414Z" fill="white"/>
<path d="M1552.52 754.901H1558.66V761.025H1552.52V754.901Z" fill="white"/>
<path d="M1531.07 733.414H1537.21V739.538H1531.07V733.414Z" fill="white"/>
<path d="M1531.07 754.901H1537.21V761.025H1531.07V754.901Z" fill="white"/>
<path d="M1552.52 690.439H1558.66V696.563H1552.52V690.439Z" fill="white"/>
<path d="M1552.52 711.926H1558.66V718.05H1552.52V711.926Z" fill="white"/>
<path d="M1552.52 648.999H1558.66V655.124H1552.52V648.999Z" fill="white"/>
<path d="M1552.52 670.487H1558.66V676.611H1552.52V670.487Z" fill="white"/>
<path d="M1531.07 690.439H1537.21V696.563H1531.07V690.439Z" fill="white"/>
<path d="M1531.07 711.926H1537.21V718.05H1531.07V711.926Z" fill="white"/>
<path d="M1573.96 776.389H1580.11V782.513H1573.96V776.389Z" fill="white"/>
<path d="M1573.96 797.876H1580.11V804H1573.96V797.876Z" fill="white"/>
</g>
</g>
<line opacity="0.05" x1="1544.5" y1="127" x2="1544.5" y2="771.168" stroke="white"/>
<line opacity="0.05" x1="794.5" y1="127" x2="794.5" y2="780.06" stroke="white"/>
<line opacity="0.05" x1="735.5" y1="127" x2="735.5" y2="785" stroke="white"/>
<line opacity="0.05" x1="1198.5" y1="127" x2="1198.5" y2="753.384" stroke="white"/>
<line opacity="0.05" x1="1140.5" y1="127" x2="1140.5" y2="758.324" stroke="white"/>
<defs>
<linearGradient id="paint0_linear" x1="2751.42" y1="-380.264" x2="550.484" y2="1604.31" gradientUnits="userSpaceOnUse">
<stop stop-color="#32228A"/>
<stop offset="1" stop-color="#745ACD"/>
</linearGradient>
<linearGradient id="paint1_linear" x1="-1619.5" y1="-84.4891" x2="2620.12" y2="-438.338" gradientUnits="userSpaceOnUse">
<stop stop-color="#32228A"/>
<stop offset="0.997939" stop-color="#745ACD"/>
</linearGradient>
</defs>
</svg>
